<svg width="38" height="38" viewBox="0 0 38 38" fill="none" xmlns="http://www.w3.org/2000/svg">
<path d="M23.315 5.77028C23.9217 5.77017 24.512 5.96777 24.9965 6.33314C25.4809 6.69851 25.8331 7.21177 25.9997 7.79521C27.0683 10.8981 29.0051 15.3139 30.4436 17.3095C30.7061 16.5978 30.8806 15.8568 30.9632 15.1029C30.9899 14.8518 31.1663 13.2195 31.412 12.4902C31.7072 11.6113 32.3176 10.8553 33.2339 10.5588C34.7259 10.0779 36.3461 10.9595 36.8537 12.5316C36.9004 12.6759 36.9365 12.8215 36.9606 12.9671C37.1342 13.7151 37.014 14.4003 36.9419 14.8531C36.7566 16.0182 36.5968 17.1872 36.4623 18.3593C36.2572 20.4868 36.3133 22.6315 36.6293 24.7453C37.03 26.6327 36.9218 28.6349 36.8163 29.4003C35.6676 37.8286 26.335 38.4564 23.7103 37.2142C21.9218 36.6331 20.0265 35.2507 17.4191 32.5819C14.3697 29.4631 11.5848 26.0303 10.034 23.7088C9.68059 23.2413 9.48512 22.6734 9.47593 22.0873C9.46673 21.5013 9.64428 20.9275 9.98286 20.4491C10.3215 19.9706 10.8035 19.6124 11.3593 19.4262C11.915 19.2399 12.5156 19.2354 13.0741 19.4132C12.5705 18.4315 12.1658 17.5739 11.8492 16.6256C11.6389 16.0163 11.6484 15.3526 11.8761 14.7496C12.1037 14.1466 12.5351 13.6422 13.0956 13.3239C13.6561 13.0056 14.3103 12.8935 14.9448 13.0069C15.5793 13.1203 16.1541 13.4521 16.5696 13.9448C16.4094 13.5882 15.4543 11.2307 15.2874 10.1327C14.7089 9.06818 14.5769 7.81744 14.9206 6.65565C15.2643 5.49386 16.0554 4.51618 17.1199 3.93769C18.1845 3.3592 19.4352 3.22728 20.597 3.57096C21.7588 3.91463 22.7365 4.70575 23.315 5.77028Z" fill="#E4AB94"/>
<path d="M23.315 5.77028C23.9217 5.77017 24.512 5.96777 24.9965 6.33314C25.4809 6.69851 25.8331 7.21177 25.9997 7.79521C27.0683 10.8981 29.0051 15.3139 30.4436 17.3095C30.7061 16.5978 30.8806 15.8568 30.9632 15.1029C30.9899 14.8518 31.1663 13.2195 31.412 12.4902C31.7072 11.6113 32.3176 10.8553 33.2339 10.5588C34.7259 10.0779 36.3461 10.9595 36.8537 12.5316C36.9004 12.6759 36.9365 12.8215 36.9606 12.9671C37.1342 13.7151 37.014 14.4003 36.9419 14.8531C36.7566 16.0182 36.5968 17.1872 36.4623 18.3593C36.2572 20.4868 36.3133 22.6315 36.6293 24.7453C37.03 26.6327 36.9218 28.6349 36.8163 29.4003C35.6676 37.8286 26.335 38.4564 23.7103 37.2142C21.9218 36.6331 20.0265 35.2507 17.4191 32.5819C14.3697 29.4631 11.5848 26.0303 10.034 23.7088C9.68059 23.2413 9.48512 22.6734 9.47593 22.0873C9.46673 21.5013 9.64428 20.9275 9.98286 20.4491C10.3215 19.9706 10.8035 19.6124 11.3593 19.4262C11.915 19.2399 12.5156 19.2354 13.0741 19.4132C12.5705 18.4315 12.1658 17.5739 11.8492 16.6256C11.6389 16.0163 11.6484 15.3526 11.8761 14.7496C12.1037 14.1466 12.5351 13.6422 13.0956 13.3239C13.6561 13.0056 14.3103 12.8935 14.9448 13.0069C15.5793 13.1203 16.1541 13.4521 16.5696 13.9448C16.4094 13.5882 15.4543 11.2307 15.2874 10.1327C14.7089 9.06818 14.5769 7.81744 14.9206 6.65565C15.2643 5.49386 16.0554 4.51618 17.1199 3.93769C18.1845 3.3592 19.4352 3.22728 20.597 3.57096C21.7588 3.91463 22.7365 4.70575 23.315 5.77028Z" fill="url(#paint0_radial_238_1071)"/>
<path d="M23.315 5.77028C23.9217 5.77017 24.512 5.96777 24.9965 6.33314C25.4809 6.69851 25.8331 7.21177 25.9997 7.79521C27.0683 10.8981 29.0051 15.3139 30.4436 17.3095C30.7061 16.5978 30.8806 15.8568 30.9632 15.1029C30.9899 14.8518 31.1663 13.2195 31.412 12.4902C31.7072 11.6113 32.3176 10.8553 33.2339 10.5588C34.7259 10.0779 36.3461 10.9595 36.8537 12.5316C36.9004 12.6759 36.9365 12.8215 36.9606 12.9671C37.1342 13.7151 37.014 14.4003 36.9419 14.8531C36.7566 16.0182 36.5968 17.1872 36.4623 18.3593C36.2572 20.4868 36.3133 22.6315 36.6293 24.7453C37.03 26.6327 36.9218 28.6349 36.8163 29.4003C35.6676 37.8286 26.335 38.4564 23.7103 37.2142C21.9218 36.6331 20.0265 35.2507 17.4191 32.5819C14.3697 29.4631 11.5848 26.0303 10.034 23.7088C9.68059 23.2413 9.48512 22.6734 9.47593 22.0873C9.46673 21.5013 9.64428 20.9275 9.98286 20.4491C10.3215 19.9706 10.8035 19.6124 11.3593 19.4262C11.915 19.2399 12.5156 19.2354 13.0741 19.4132C12.5705 18.4315 12.1658 17.5739 11.8492 16.6256C11.6389 16.0163 11.6484 15.3526 11.8761 14.7496C12.1037 14.1466 12.5351 13.6422 13.0956 13.3239C13.6561 13.0056 14.3103 12.8935 14.9448 13.0069C15.5793 13.1203 16.1541 13.4521 16.5696 13.9448C16.4094 13.5882 15.4543 11.2307 15.2874 10.1327C14.7089 9.06818 14.5769 7.81744 14.9206 6.65565C15.2643 5.49386 16.0554 4.51618 17.1199 3.93769C18.1845 3.3592 19.4352 3.22728 20.597 3.57096C21.7588 3.91463 22.7365 4.70575 23.315 5.77028Z" fill="url(#paint1_linear_238_1071)"/>
<path d="M20.5244 8.5255C20.5631 8.85675 20.6607 9.28151 20.861 9.80244C20.9478 10.0295 21.0534 10.3194 21.1776 10.6613C21.7372 12.3002 22.7884 15.0798 24.1829 17.6203C24.7079 18.5767 25.6656 19.2499 26.7568 19.1978C28.194 19.131 29.845 18.6568 30.4781 17.2423L30.4741 17.229C30.4641 17.2558 30.4538 17.2825 30.4434 17.3091C29.0048 15.3136 27.068 10.8977 25.9995 7.79487C25.815 7.1509 25.4051 6.59473 24.8447 6.22787C24.2842 5.861 23.6105 5.7079 22.9465 5.79651C22.2825 5.88511 21.6726 6.20952 21.2279 6.71052C20.7832 7.21151 20.5336 7.8557 20.5244 8.5255Z" fill="url(#paint2_radial_238_1071)"/>
<path d="M20.5244 8.5255C20.5631 8.85675 20.6607 9.28151 20.861 9.80244C20.9478 10.0295 21.0534 10.3194 21.1776 10.6613C21.7372 12.3002 22.7884 15.0798 24.1829 17.6203C24.7079 18.5767 25.6656 19.2499 26.7568 19.1978C28.194 19.131 29.845 18.6568 30.4781 17.2423L30.4741 17.229C30.4641 17.2558 30.4538 17.2825 30.4434 17.3091C29.0048 15.3136 27.068 10.8977 25.9995 7.79487C25.815 7.1509 25.4051 6.59473 24.8447 6.22787C24.2842 5.861 23.6105 5.7079 22.9465 5.79651C22.2825 5.88511 21.6726 6.20952 21.2279 6.71052C20.7832 7.21151 20.5336 7.8557 20.5244 8.5255Z" fill="url(#paint3_radial_238_1071)"/>
<path d="M20.5244 8.5255C20.5631 8.85675 20.6607 9.28151 20.861 9.80244C20.9478 10.0295 21.0534 10.3194 21.1776 10.6613C21.7372 12.3002 22.7884 15.0798 24.1829 17.6203C24.7079 18.5767 25.6656 19.2499 26.7568 19.1978C28.194 19.131 29.845 18.6568 30.4781 17.2423L30.4741 17.229C30.4641 17.2558 30.4538 17.2825 30.4434 17.3091C29.0048 15.3136 27.068 10.8977 25.9995 7.79487C25.815 7.1509 25.4051 6.59473 24.8447 6.22787C24.2842 5.861 23.6105 5.7079 22.9465 5.79651C22.2825 5.88511 21.6726 6.20952 21.2279 6.71052C20.7832 7.21151 20.5336 7.8557 20.5244 8.5255Z" fill="url(#paint4_linear_238_1071)"/>
<path d="M20.5244 8.5255C20.5631 8.85675 20.6607 9.28151 20.861 9.80244C20.9478 10.0295 21.0534 10.3194 21.1776 10.6613C21.7372 12.3002 22.7884 15.0798 24.1829 17.6203C24.7079 18.5767 25.6656 19.2499 26.7568 19.1978C28.194 19.131 29.845 18.6568 30.4781 17.2423L30.4741 17.229C30.4641 17.2558 30.4538 17.2825 30.4434 17.3091C29.0048 15.3136 27.068 10.8977 25.9995 7.79487C25.815 7.1509 25.4051 6.59473 24.8447 6.22787C24.2842 5.861 23.6105 5.7079 22.9465 5.79651C22.2825 5.88511 21.6726 6.20952 21.2279 6.71052C20.7832 7.21151 20.5336 7.8557 20.5244 8.5255Z" fill="url(#paint5_radial_238_1071)"/>
<path d="M20.5244 8.5255C20.5631 8.85675 20.6607 9.28151 20.861 9.80244C20.9478 10.0295 21.0534 10.3194 21.1776 10.6613C21.7372 12.3002 22.7884 15.0798 24.1829 17.6203C24.7079 18.5767 25.6656 19.2499 26.7568 19.1978C28.194 19.131 29.845 18.6568 30.4781 17.2423L30.4741 17.229C30.4641 17.2558 30.4538 17.2825 30.4434 17.3091C29.0048 15.3136 27.068 10.8977 25.9995 7.79487C25.815 7.1509 25.4051 6.59473 24.8447 6.22787C24.2842 5.861 23.6105 5.7079 22.9465 5.79651C22.2825 5.88511 21.6726 6.20952 21.2279 6.71052C20.7832 7.21151 20.5336 7.8557 20.5244 8.5255Z" fill="url(#paint6_radial_238_1071)"/>
<path d="M11.8549 16.6253C11.646 16.0194 11.6544 15.3597 11.8786 14.7593C12.1028 14.1589 12.529 13.6552 13.0839 13.3346C13.6389 13.014 14.2881 12.8965 14.9203 13.0022C15.5524 13.1078 16.1281 13.4302 16.5486 13.9139C17.9297 16.7001 19.6328 19.9499 20.9244 21.844C19.2815 24.0773 18.8861 25.2046 18.5468 26.165C17.5023 24.7104 15.3198 21.7505 14.5397 20.7594C14.1203 20.2278 13.6101 19.5492 13.0838 19.413C12.5938 18.5213 12.1826 17.5886 11.8549 16.6253Z" fill="url(#paint7_radial_238_1071)"/>
<path d="M11.8549 16.6253C11.646 16.0194 11.6544 15.3597 11.8786 14.7593C12.1028 14.1589 12.529 13.6552 13.0839 13.3346C13.6389 13.014 14.2881 12.8965 14.9203 13.0022C15.5524 13.1078 16.1281 13.4302 16.5486 13.9139C17.9297 16.7001 19.6328 19.9499 20.9244 21.844C19.2815 24.0773 18.8861 25.2046 18.5468 26.165C17.5023 24.7104 15.3198 21.7505 14.5397 20.7594C14.1203 20.2278 13.6101 19.5492 13.0838 19.413C12.5938 18.5213 12.1826 17.5886 11.8549 16.6253Z" fill="url(#paint8_radial_238_1071)"/>
<path d="M11.8549 16.6253C11.646 16.0194 11.6544 15.3597 11.8786 14.7593C12.1028 14.1589 12.529 13.6552 13.0839 13.3346C13.6389 13.014 14.2881 12.8965 14.9203 13.0022C15.5524 13.1078 16.1281 13.4302 16.5486 13.9139C17.9297 16.7001 19.6328 19.9499 20.9244 21.844C19.2815 24.0773 18.8861 25.2046 18.5468 26.165C17.5023 24.7104 15.3198 21.7505 14.5397 20.7594C14.1203 20.2278 13.6101 19.5492 13.0838 19.413C12.5938 18.5213 12.1826 17.5886 11.8549 16.6253Z" fill="url(#paint9_radial_238_1071)"/>
<path d="M11.8549 16.6253C11.646 16.0194 11.6544 15.3597 11.8786 14.7593C12.1028 14.1589 12.529 13.6552 13.0839 13.3346C13.6389 13.014 14.2881 12.8965 14.9203 13.0022C15.5524 13.1078 16.1281 13.4302 16.5486 13.9139C17.9297 16.7001 19.6328 19.9499 20.9244 21.844C19.2815 24.0773 18.8861 25.2046 18.5468 26.165C17.5023 24.7104 15.3198 21.7505 14.5397 20.7594C14.1203 20.2278 13.6101 19.5492 13.0838 19.413C12.5938 18.5213 12.1826 17.5886 11.8549 16.6253Z" fill="url(#paint10_linear_238_1071)"/>
<path d="M11.8549 16.6253C11.646 16.0194 11.6544 15.3597 11.8786 14.7593C12.1028 14.1589 12.529 13.6552 13.0839 13.3346C13.6389 13.014 14.2881 12.8965 14.9203 13.0022C15.5524 13.1078 16.1281 13.4302 16.5486 13.9139C17.9297 16.7001 19.6328 19.9499 20.9244 21.844C19.2815 24.0773 18.8861 25.2046 18.5468 26.165C17.5023 24.7104 15.3198 21.7505 14.5397 20.7594C14.1203 20.2278 13.6101 19.5492 13.0838 19.413C12.5938 18.5213 12.1826 17.5886 11.8549 16.6253Z" fill="url(#paint11_radial_238_1071)"/>
<g filter="url(#filter0_f_238_1071)">
<path d="M19.351 23.5351C17.0789 19.7764 15.6163 17.0569 14.7962 15.6598C14.6969 15.4923 14.6647 15.2933 14.7061 15.103C14.7475 14.9127 14.8594 14.7451 15.0193 14.634C15.1036 14.5768 15.1988 14.5377 15.2989 14.519C15.399 14.5003 15.5019 14.5024 15.6011 14.5252C15.7004 14.548 15.7939 14.591 15.8758 14.6515C15.9577 14.7121 16.0262 14.7889 16.0772 14.8771L17.9057 18.052L20.1577 22.1366C19.908 22.8045 19.6154 23.3254 19.351 23.5351Z" fill="#F1BD9E"/>
</g>
<path d="M30.4384 17.302L30.4437 17.3087C30.6975 16.6515 30.8831 15.826 30.9633 15.1021L30.966 15.078C31.0007 14.7601 31.1743 13.1987 31.4121 12.4894C31.7073 11.6105 32.3177 10.8545 33.234 10.558C34.726 10.0771 36.3462 10.9587 36.8538 12.5308C36.9005 12.6751 36.9366 12.822 36.9606 12.9663C37.1289 13.6849 37.0234 14.3474 36.9513 14.8002L36.9432 14.8523C36.7576 16.0174 36.5973 17.1864 36.4624 18.3585C36.3368 19.5607 36.258 21.4667 36.4891 23.6573C33.457 24.241 31.5951 22.3243 30.966 21.2183C30.2861 20.0215 30.1458 17.7481 30.4384 17.302Z" fill="url(#paint12_radial_238_1071)"/>
<path d="M30.4384 17.302L30.4437 17.3087C30.6975 16.6515 30.8831 15.826 30.9633 15.1021L30.966 15.078C31.0007 14.7601 31.1743 13.1987 31.4121 12.4894C31.7073 11.6105 32.3177 10.8545 33.234 10.558C34.726 10.0771 36.3462 10.9587 36.8538 12.5308C36.9005 12.6751 36.9366 12.822 36.9606 12.9663C37.1289 13.6849 37.0234 14.3474 36.9513 14.8002L36.9432 14.8523C36.7576 16.0174 36.5973 17.1864 36.4624 18.3585C36.3368 19.5607 36.258 21.4667 36.4891 23.6573C33.457 24.241 31.5951 22.3243 30.966 21.2183C30.2861 20.0215 30.1458 17.7481 30.4384 17.302Z" fill="url(#paint13_radial_238_1071)"/>
<path d="M30.4384 17.302L30.4437 17.3087C30.6975 16.6515 30.8831 15.826 30.9633 15.1021L30.966 15.078C31.0007 14.7601 31.1743 13.1987 31.4121 12.4894C31.7073 11.6105 32.3177 10.8545 33.234 10.558C34.726 10.0771 36.3462 10.9587 36.8538 12.5308C36.9005 12.6751 36.9366 12.822 36.9606 12.9663C37.1289 13.6849 37.0234 14.3474 36.9513 14.8002L36.9432 14.8523C36.7576 16.0174 36.5973 17.1864 36.4624 18.3585C36.3368 19.5607 36.258 21.4667 36.4891 23.6573C33.457 24.241 31.5951 22.3243 30.966 21.2183C30.2861 20.0215 30.1458 17.7481 30.4384 17.302Z" fill="url(#paint14_radial_238_1071)"/>
<g filter="url(#filter1_f_238_1071)">
<path d="M36.0946 13.8911C36.5897 13.6083 36.663 12.8046 36.2583 12.0962C35.8535 11.3878 35.1241 11.0428 34.6289 11.3257C34.1338 11.6086 34.0605 12.4122 34.4653 13.1206C34.87 13.829 35.5995 14.174 36.0946 13.8911Z" fill="url(#paint15_radial_238_1071)"/>
</g>
<g filter="url(#filter2_f_238_1071)">
<path d="M35.3611 23.513C34.1033 23.2291 32.97 22.5485 32.1283 21.5717C31.2866 20.5948 30.781 19.3734 30.6861 18.0874C30.0597 18.3652 29.3504 20.5718 29.8313 22.0531C30.7689 24.9516 33.817 25.8238 34.6518 25.8505L35.3611 23.513Z" fill="#ECB59A"/>
</g>
<g filter="url(#filter3_f_238_1071)">
<path d="M30.9281 20.1104C31.604 21.1242 34.0016 22.2769 35.4762 22.5948C36.0879 24.2243 37.1044 31.6949 32.5964 34.6589C33.6449 32.8236 34.3809 26.0449 30.9281 20.1104Z" fill="url(#paint16_radial_238_1071)"/>
</g>
<path d="M16.4352 13.6254C17.4303 15.7638 18.6685 18.4259 20.2179 20.7247C20.4944 21.1361 20.9926 21.3444 21.4521 21.1588C22.5215 20.7117 23.4616 20.0035 24.1863 19.0991C24.5042 18.7024 24.4935 18.1507 24.2464 17.7073C23.1218 15.6971 21.5176 12.1427 20.5078 8.52296C20.2222 7.92542 19.7313 7.45046 19.1247 7.18469C18.5181 6.91892 17.8361 6.88007 17.2033 7.07521C16.5704 7.27035 16.0287 7.68649 15.6771 8.24772C15.3255 8.80895 15.1873 9.47788 15.2878 10.1325C15.4268 11.0515 16.12 12.8533 16.4352 13.6254Z" fill="url(#paint17_radial_238_1071)"/>
<path d="M16.4352 13.6254C17.4303 15.7638 18.6685 18.4259 20.2179 20.7247C20.4944 21.1361 20.9926 21.3444 21.4521 21.1588C22.5215 20.7117 23.4616 20.0035 24.1863 19.0991C24.5042 18.7024 24.4935 18.1507 24.2464 17.7073C23.1218 15.6971 21.5176 12.1427 20.5078 8.52296C20.2222 7.92542 19.7313 7.45046 19.1247 7.18469C18.5181 6.91892 17.8361 6.88007 17.2033 7.07521C16.5704 7.27035 16.0287 7.68649 15.6771 8.24772C15.3255 8.80895 15.1873 9.47788 15.2878 10.1325C15.4268 11.0515 16.12 12.8533 16.4352 13.6254Z" fill="url(#paint18_radial_238_1071)"/>
<path d="M16.4352 13.6254C17.4303 15.7638 18.6685 18.4259 20.2179 20.7247C20.4944 21.1361 20.9926 21.3444 21.4521 21.1588C22.5215 20.7117 23.4616 20.0035 24.1863 19.0991C24.5042 18.7024 24.4935 18.1507 24.2464 17.7073C23.1218 15.6971 21.5176 12.1427 20.5078 8.52296C20.2222 7.92542 19.7313 7.45046 19.1247 7.18469C18.5181 6.91892 17.8361 6.88007 17.2033 7.07521C16.5704 7.27035 16.0287 7.68649 15.6771 8.24772C15.3255 8.80895 15.1873 9.47788 15.2878 10.1325C15.4268 11.0515 16.12 12.8533 16.4352 13.6254Z" fill="url(#paint19_linear_238_1071)"/>
<path d="M16.4352 13.6254C17.4303 15.7638 18.6685 18.4259 20.2179 20.7247C20.4944 21.1361 20.9926 21.3444 21.4521 21.1588C22.5215 20.7117 23.4616 20.0035 24.1863 19.0991C24.5042 18.7024 24.4935 18.1507 24.2464 17.7073C23.1218 15.6971 21.5176 12.1427 20.5078 8.52296C20.2222 7.92542 19.7313 7.45046 19.1247 7.18469C18.5181 6.91892 17.8361 6.88007 17.2033 7.07521C16.5704 7.27035 16.0287 7.68649 15.6771 8.24772C15.3255 8.80895 15.1873 9.47788 15.2878 10.1325C15.4268 11.0515 16.12 12.8533 16.4352 13.6254Z" fill="url(#paint20_radial_238_1071)"/>
<path d="M13.0741 19.413C12.5156 19.2352 11.915 19.2398 11.3593 19.426C10.8035 19.6122 10.3215 19.9705 9.98286 20.4489C9.64428 20.9273 9.46673 21.5011 9.47593 22.0871C9.48512 22.6732 9.68059 23.2411 10.034 23.7087C11.3751 25.7162 13.6404 28.556 16.1996 31.3048C19.376 29.8169 19.0928 26.7901 18.5505 26.1477C18.5411 26.1771 15.847 22.421 14.538 20.7594L14.4726 20.6766C14.0679 20.1597 13.583 19.5413 13.0834 19.413C12.8898 19.0591 12.8884 19.0497 13.0741 19.413Z" fill="url(#paint21_radial_238_1071)"/>
<path d="M13.0741 19.413C12.5156 19.2352 11.915 19.2398 11.3593 19.426C10.8035 19.6122 10.3215 19.9705 9.98286 20.4489C9.64428 20.9273 9.46673 21.5011 9.47593 22.0871C9.48512 22.6732 9.68059 23.2411 10.034 23.7087C11.3751 25.7162 13.6404 28.556 16.1996 31.3048C19.376 29.8169 19.0928 26.7901 18.5505 26.1477C18.5411 26.1771 15.847 22.421 14.538 20.7594L14.4726 20.6766C14.0679 20.1597 13.583 19.5413 13.0834 19.413C12.8898 19.0591 12.8884 19.0497 13.0741 19.413Z" fill="url(#paint22_radial_238_1071)"/>
<g filter="url(#filter4_f_238_1071)">
<path d="M17.1306 27.6513C17.0923 27.8215 17.1221 27.9999 17.2136 28.1484C17.3052 28.2969 17.4512 28.4037 17.6205 28.4459C17.7897 28.4882 17.9688 28.4625 18.1193 28.3744C18.2699 28.2863 18.3801 28.1428 18.4262 27.9746L17.1306 27.6513ZM28.3425 19.0453C28.4322 19.0426 28.5205 19.0217 28.602 18.984C28.6835 18.9463 28.7565 18.8926 28.8168 18.8261C28.877 18.7595 28.9233 18.6815 28.9527 18.5967C28.9821 18.5118 28.9941 18.4219 28.988 18.3324C28.9819 18.2428 28.9578 18.1554 28.9171 18.0753C28.8765 17.9953 28.8201 17.9243 28.7513 17.8665C28.6826 17.8087 28.6029 17.7654 28.5171 17.7392C28.4312 17.7129 28.3409 17.7042 28.2517 17.7136L28.3425 19.0453ZM18.4262 27.9746C18.8149 26.4185 19.8821 24.2653 21.5785 22.4581C23.2668 20.6549 25.5402 19.239 28.3425 19.0453L28.2517 17.7136C25.0259 17.9354 22.4574 19.5663 20.6034 21.5431C18.7561 23.5133 17.5767 25.8681 17.1306 27.6513L18.4262 27.9746Z" fill="#D79D85"/>
</g>
<g filter="url(#filter5_f_238_1071)">
<path d="M24.207 7.35986C24.915 10.4079 27.5663 15.4796 29.1104 17.8585" stroke="#FFCFAA" stroke-width="0.917582" stroke-linecap="round"/>
</g>
<g filter="url(#filter6_f_238_1071)">
<path d="M25.9795 11.4307C26.439 12.5019 27.5423 15.3162 29.1104 17.5869" stroke="url(#paint23_linear_238_1071)" stroke-width="0.642308" stroke-linecap="round"/>
</g>
<g filter="url(#filter7_i_238_1071)">
<path d="M25.541 1C27.8892 1.16696 31.74 3.13446 31.6145 8.1634" stroke="#1B99E7" stroke-width="0.825824" stroke-linecap="round"/>
<path d="M25.541 1C27.8892 1.16696 31.74 3.13446 31.6145 8.1634" stroke="url(#paint24_radial_238_1071)" stroke-width="0.825824" stroke-linecap="round"/>
</g>
<g filter="url(#filter8_i_238_1071)">
<path d="M22.6406 3.10791C24.9781 3.18672 29.3405 5.21031 29.1843 10.6159" stroke="#1B99E7" stroke-width="0.825824" stroke-linecap="round"/>
<path d="M22.6406 3.10791C24.9781 3.18672 29.3405 5.21031 29.1843 10.6159" stroke="url(#paint25_radial_238_1071)" stroke-width="0.825824" stroke-linecap="round"/>
</g>
<path d="M3.59143 19.1201C3.32429 22.4193 5.18226 26.0925 9.8372 26.8632" stroke="url(#paint26_linear_238_1071)" stroke-width="0.825824" stroke-linecap="round"/>
<path d="M3.59143 19.1201C3.32429 22.4193 5.18226 26.0925 9.8372 26.8632" stroke="url(#paint27_radial_238_1071)" stroke-width="0.825824" stroke-linecap="round"/>
<path d="M1.04051 21.6152C0.726615 24.9118 2.90783 28.2724 6.99776 28.8254" stroke="url(#paint28_linear_238_1071)" stroke-width="0.825824" stroke-linecap="round"/>
<path d="M1.04051 21.6152C0.726615 24.9118 2.90783 28.2724 6.99776 28.8254" stroke="url(#paint29_radial_238_1071)" stroke-width="0.825824" stroke-linecap="round"/>
<g filter="url(#filter9_f_238_1071)">
<path d="M17.4293 28.0672C15.7662 26.227 14.1995 24.3019 12.7356 22.2996C12.5966 22.1043 12.5385 21.8628 12.5734 21.6256C12.6082 21.3884 12.7333 21.1738 12.9226 21.0267C13.1218 20.868 13.3756 20.7947 13.6287 20.8228C13.8818 20.8508 14.1134 20.9779 14.273 21.1763L17.6176 25.3343C17.6337 26.5365 17.4988 27.6585 17.4293 28.0672Z" fill="#F1BD9E"/>
</g>
<g filter="url(#filter10_f_238_1071)">
<path d="M19.1143 8.8208C19.5457 10.3235 21.4651 15.9869 23.4967 19.2353" stroke="#EAB99F" stroke-width="0.917582" stroke-linecap="round"/>
</g>
<defs>
<filter id="filter0_f_238_1071" x="14.0003" y="13.8182" width="6.8461" height="10.4052" filterUnits="userSpaceOnUse" color-interpolation-filters="sRGB">
<feFlood flood-opacity="0" result="BackgroundImageFix"/>
<feBlend mode="normal" in="SourceGraphic" in2="BackgroundImageFix" result="shape"/>
<feGaussianBlur stdDeviation="0.344093" result="effect1_foregroundBlur_238_1071"/>
</filter>
<filter id="filter1_f_238_1071" x="33.7453" y="10.7683" width="3.23301" height="3.68028" filterUnits="userSpaceOnUse" color-interpolation-filters="sRGB">
<feFlood flood-opacity="0" result="BackgroundImageFix"/>
<feBlend mode="normal" in="SourceGraphic" in2="BackgroundImageFix" result="shape"/>
<feGaussianBlur stdDeviation="0.229396" result="effect1_foregroundBlur_238_1071"/>
</filter>
<filter id="filter2_f_238_1071" x="28.7553" y="17.1698" width="7.52364" height="9.59835" filterUnits="userSpaceOnUse" color-interpolation-filters="sRGB">
<feFlood flood-opacity="0" result="BackgroundImageFix"/>
<feBlend mode="normal" in="SourceGraphic" in2="BackgroundImageFix" result="shape"/>
<feGaussianBlur stdDeviation="0.458791" result="effect1_foregroundBlur_238_1071"/>
</filter>
<filter id="filter3_f_238_1071" x="29.5514" y="18.734" width="7.8504" height="17.3011" filterUnits="userSpaceOnUse" color-interpolation-filters="sRGB">
<feFlood flood-opacity="0" result="BackgroundImageFix"/>
<feBlend mode="normal" in="SourceGraphic" in2="BackgroundImageFix" result="shape"/>
<feGaussianBlur stdDeviation="0.688187" result="effect1_foregroundBlur_238_1071"/>
</filter>
<filter id="filter4_f_238_1071" x="15.7379" y="16.3336" width="14.6277" height="13.5086" filterUnits="userSpaceOnUse" color-interpolation-filters="sRGB">
<feFlood flood-opacity="0" result="BackgroundImageFix"/>
<feBlend mode="normal" in="SourceGraphic" in2="BackgroundImageFix" result="shape"/>
<feGaussianBlur stdDeviation="0.688187" result="effect1_foregroundBlur_238_1071"/>
</filter>
<filter id="filter5_f_238_1071" x="22.6469" y="5.79978" width="8.02349" height="13.6187" filterUnits="userSpaceOnUse" color-interpolation-filters="sRGB">
<feFlood flood-opacity="0" result="BackgroundImageFix"/>
<feBlend mode="normal" in="SourceGraphic" in2="BackgroundImageFix" result="shape"/>
<feGaussianBlur stdDeviation="0.55055" result="effect1_foregroundBlur_238_1071"/>
</filter>
<filter id="filter6_f_238_1071" x="25.0159" y="10.4671" width="5.05805" height="8.08344" filterUnits="userSpaceOnUse" color-interpolation-filters="sRGB">
<feFlood flood-opacity="0" result="BackgroundImageFix"/>
<feBlend mode="normal" in="SourceGraphic" in2="BackgroundImageFix" result="shape"/>
<feGaussianBlur stdDeviation="0.321154" result="effect1_foregroundBlur_238_1071"/>
</filter>
<filter id="filter7_i_238_1071" x="25.1279" y="0.495156" width="6.9941" height="8.08102" filterUnits="userSpaceOnUse" color-interpolation-filters="sRGB">
<feFlood flood-opacity="0" result="BackgroundImageFix"/>
<feBlend mode="normal" in="SourceGraphic" in2="BackgroundImageFix" result="shape"/>
<feColorMatrix in="SourceAlpha" type="matrix" values="0 0 0 0 0 0 0 0 0 0 0 0 0 0 0 0 0 0 127 0" result="hardAlpha"/>
<feOffset dx="0.0917582" dy="-0.0917582"/>
<feGaussianBlur stdDeviation="0.229396"/>
<feComposite in2="hardAlpha" operator="arithmetic" k2="-1" k3="1"/>
<feColorMatrix type="matrix" values="0 0 0 0 0.0823529 0 0 0 0 0.337255 0 0 0 0 0.627451 0 0 0 1 0"/>
<feBlend mode="normal" in2="shape" result="effect1_innerShadow_238_1071"/>
</filter>
<filter id="filter8_i_238_1071" x="22.2275" y="2.60307" width="7.46578" height="8.42574" filterUnits="userSpaceOnUse" color-interpolation-filters="sRGB">
<feFlood flood-opacity="0" result="BackgroundImageFix"/>
<feBlend mode="normal" in="SourceGraphic" in2="BackgroundImageFix" result="shape"/>
<feColorMatrix in="SourceAlpha" type="matrix" values="0 0 0 0 0 0 0 0 0 0 0 0 0 0 0 0 0 0 127 0" result="hardAlpha"/>
<feOffset dx="0.0917582" dy="-0.0917582"/>
<feGaussianBlur stdDeviation="0.229396"/>
<feComposite in2="hardAlpha" operator="arithmetic" k2="-1" k3="1"/>
<feColorMatrix type="matrix" values="0 0 0 0 0.0823529 0 0 0 0 0.337255 0 0 0 0 0.627451 0 0 0 1 0"/>
<feBlend mode="normal" in2="shape" result="effect1_innerShadow_238_1071"/>
</filter>
<filter id="filter9_f_238_1071" x="11.8753" y="20.1287" width="6.43204" height="8.62686" filterUnits="userSpaceOnUse" color-interpolation-filters="sRGB">
<feFlood flood-opacity="0" result="BackgroundImageFix"/>
<feBlend mode="normal" in="SourceGraphic" in2="BackgroundImageFix" result="shape"/>
<feGaussianBlur stdDeviation="0.344093" result="effect1_foregroundBlur_238_1071"/>
</filter>
<filter id="filter10_f_238_1071" x="17.7377" y="7.44423" width="7.13595" height="13.1677" filterUnits="userSpaceOnUse" color-interpolation-filters="sRGB">
<feFlood flood-opacity="0" result="BackgroundImageFix"/>
<feBlend mode="normal" in="SourceGraphic" in2="BackgroundImageFix" result="shape"/>
<feGaussianBlur stdDeviation="0.458791" result="effect1_foregroundBlur_238_1071"/>
</filter>
<radialGradient id="paint0_radial_238_1071" cx="0" cy="0" r="1" gradientUnits="userSpaceOnUse" gradientTransform="translate(29.3323 16.85) rotate(99.3161) scale(22.4279 25.0376)">
<stop offset="0.815" stop-color="#B57393" stop-opacity="0"/>
<stop offset="1" stop-color="#B57393"/>
</radialGradient>
<linearGradient id="paint1_linear_238_1071" x1="17.4499" y1="27.712" x2="12.6199" y2="31.5361" gradientUnits="userSpaceOnUse">
<stop stop-color="#B57393" stop-opacity="0"/>
<stop offset="1" stop-color="#B57393"/>
</linearGradient>
<radialGradient id="paint2_radial_238_1071" cx="0" cy="0" r="1" gradientUnits="userSpaceOnUse" gradientTransform="translate(28.7614 12.4855) rotate(156.037) scale(5.47917 11.5118)">
<stop offset="0.719" stop-color="#CD8F7C" stop-opacity="0"/>
<stop offset="1" stop-color="#CD8F7C"/>
</radialGradient>
<radialGradient id="paint3_radial_238_1071" cx="0" cy="0" r="1" gradientUnits="userSpaceOnUse" gradientTransform="translate(28.7604 12.4853) rotate(154.952) scale(6.8797 17.3098)">
<stop offset="0.769" stop-color="#C98769" stop-opacity="0"/>
<stop offset="1" stop-color="#C98769"/>
</radialGradient>
<linearGradient id="paint4_linear_238_1071" x1="25.1874" y1="19.7508" x2="24.6437" y2="16.9391" gradientUnits="userSpaceOnUse">
<stop stop-color="#E4AB94"/>
<stop offset="1" stop-color="#E4AB94" stop-opacity="0"/>
</linearGradient>
<radialGradient id="paint5_radial_238_1071" cx="0" cy="0" r="1" gradientUnits="userSpaceOnUse" gradientTransform="translate(30.4766 17.3362) rotate(-127.591) scale(4.978 1.06472)">
<stop stop-color="#B17F61"/>
<stop offset="1" stop-color="#B17F61" stop-opacity="0"/>
</radialGradient>
<radialGradient id="paint6_radial_238_1071" cx="0" cy="0" r="1" gradientUnits="userSpaceOnUse" gradientTransform="translate(23.9266 5.32737) rotate(84.463) scale(3.06148 3.82826)">
<stop stop-color="#C79A79"/>
<stop offset="1" stop-color="#C79A79" stop-opacity="0"/>
</radialGradient>
<radialGradient id="paint7_radial_238_1071" cx="0" cy="0" r="1" gradientUnits="userSpaceOnUse" gradientTransform="translate(19.0728 18.3372) rotate(146.452) scale(4.68285 12.5331)">
<stop offset="0.425" stop-color="#CF927E" stop-opacity="0"/>
<stop offset="1" stop-color="#CF927E"/>
</radialGradient>
<radialGradient id="paint8_radial_238_1071" cx="0" cy="0" r="1" gradientUnits="userSpaceOnUse" gradientTransform="translate(19.0731 18.3391) rotate(147.829) scale(6.1147 16.3654)">
<stop offset="0.625" stop-color="#C7865E" stop-opacity="0"/>
<stop offset="1" stop-color="#C7865E"/>
</radialGradient>
<radialGradient id="paint9_radial_238_1071" cx="0" cy="0" r="1" gradientUnits="userSpaceOnUse" gradientTransform="translate(14.66 20.8551) rotate(-32.681) scale(5.25671 33.2728)">
<stop offset="0.692" stop-color="#C78764" stop-opacity="0"/>
<stop offset="1" stop-color="#C78764"/>
</radialGradient>
<linearGradient id="paint10_linear_238_1071" x1="20.2004" y1="23.3466" x2="17.9044" y2="22.1365" gradientUnits="userSpaceOnUse">
<stop stop-color="#E4AB94"/>
<stop offset="1" stop-color="#E4AB94" stop-opacity="0"/>
</linearGradient>
<radialGradient id="paint11_radial_238_1071" cx="0" cy="0" r="1" gradientUnits="userSpaceOnUse" gradientTransform="translate(14.7601 12.4726) rotate(83.1268) scale(3.07564 3.63244)">
<stop stop-color="#CC9D7A"/>
<stop offset="1" stop-color="#CC9D7A" stop-opacity="0"/>
</radialGradient>
<radialGradient id="paint12_radial_238_1071" cx="0" cy="0" r="1" gradientUnits="userSpaceOnUse" gradientTransform="translate(31.845 21.4274) rotate(-77.656) scale(7.02887 3.03403)">
<stop stop-color="#DAA08C"/>
<stop offset="1" stop-color="#DAA08C" stop-opacity="0"/>
</radialGradient>
<radialGradient id="paint13_radial_238_1071" cx="0" cy="0" r="1" gradientUnits="userSpaceOnUse" gradientTransform="translate(30.9069 13.046) rotate(5.452) scale(1.3038 4.72051)">
<stop stop-color="#BA7F5F"/>
<stop offset="1" stop-color="#BA7F5F" stop-opacity="0"/>
</radialGradient>
<radialGradient id="paint14_radial_238_1071" cx="0" cy="0" r="1" gradientUnits="userSpaceOnUse" gradientTransform="translate(32.2042 9.73787) rotate(58.316) scale(2.79593 10.123)">
<stop stop-color="#BA7F5F"/>
<stop offset="1" stop-color="#BA7F5F" stop-opacity="0"/>
</radialGradient>
<radialGradient id="paint15_radial_238_1071" cx="0" cy="0" r="1" gradientUnits="userSpaceOnUse" gradientTransform="translate(36.0828 12.2011) rotate(137.305) scale(2.32927 3.23474)">
<stop stop-color="#FDCEA8"/>
<stop offset="1" stop-color="#FDCEA8" stop-opacity="0"/>
</radialGradient>
<radialGradient id="paint16_radial_238_1071" cx="0" cy="0" r="1" gradientUnits="userSpaceOnUse" gradientTransform="translate(37.1475 22.9295) rotate(113.948) scale(16.3508 8.17329)">
<stop stop-color="#FFCEAB"/>
<stop offset="1" stop-color="#FFCEAB" stop-opacity="0"/>
</radialGradient>
<radialGradient id="paint17_radial_238_1071" cx="0" cy="0" r="1" gradientUnits="userSpaceOnUse" gradientTransform="translate(23.0416 14.169) rotate(149.999) scale(5.77497 13.6692)">
<stop offset="0.655" stop-color="#D0927D" stop-opacity="0"/>
<stop offset="1" stop-color="#D0927D"/>
</radialGradient>
<radialGradient id="paint18_radial_238_1071" cx="0" cy="0" r="1" gradientUnits="userSpaceOnUse" gradientTransform="translate(22.896 14.1699) rotate(155.961) scale(2.23954 14.1729)">
<stop stop-color="#B67A4E"/>
<stop offset="1" stop-color="#C98968" stop-opacity="0"/>
</radialGradient>
<linearGradient id="paint19_linear_238_1071" x1="21.3266" y1="21.49" x2="20.1792" y2="17.9624" gradientUnits="userSpaceOnUse">
<stop stop-color="#E4AB94"/>
<stop offset="1" stop-color="#E4AB94" stop-opacity="0"/>
</linearGradient>
<radialGradient id="paint20_radial_238_1071" cx="0" cy="0" r="1" gradientUnits="userSpaceOnUse" gradientTransform="translate(18.3747 6.41121) rotate(83.5812) scale(3.36034 3.71083)">
<stop stop-color="#CA9F7E"/>
<stop offset="1" stop-color="#CA9F7E" stop-opacity="0"/>
</radialGradient>
<radialGradient id="paint21_radial_238_1071" cx="0" cy="0" r="1" gradientUnits="userSpaceOnUse" gradientTransform="translate(16.8608 22.2621) rotate(140.042) scale(2.01483 6.8314)">
<stop stop-color="#E2A684"/>
<stop offset="1" stop-color="#E2A684" stop-opacity="0"/>
</radialGradient>
<radialGradient id="paint22_radial_238_1071" cx="0" cy="0" r="1" gradientUnits="userSpaceOnUse" gradientTransform="translate(12.5959 18.6891) rotate(82.3931) scale(2.83838 3.70213)">
<stop stop-color="#CA9A78"/>
<stop offset="1" stop-color="#CA9A78" stop-opacity="0"/>
</radialGradient>
<linearGradient id="paint23_linear_238_1071" x1="29.1318" y1="17.253" x2="25.8339" y2="11.3679" gradientUnits="userSpaceOnUse">
<stop stop-color="#E3B397"/>
<stop offset="1" stop-color="#E3B397" stop-opacity="0"/>
</linearGradient>
<radialGradient id="paint24_radial_238_1071" cx="0" cy="0" r="1" gradientUnits="userSpaceOnUse" gradientTransform="translate(28.2552 4.79341) rotate(-44.7093) scale(2.90729 7.4385)">
<stop stop-color="#16579C"/>
<stop offset="0.744" stop-color="#16579C" stop-opacity="0"/>
</radialGradient>
<radialGradient id="paint25_radial_238_1071" cx="0" cy="0" r="1" gradientUnits="userSpaceOnUse" gradientTransform="translate(25.5658 7.08298) rotate(-43.9171) scale(3.0905 7.90202)">
<stop stop-color="#16579C"/>
<stop offset="0.862" stop-color="#16579C" stop-opacity="0"/>
</radialGradient>
<linearGradient id="paint26_linear_238_1071" x1="5.04735" y1="19.1201" x2="9.30425" y2="27.9799" gradientUnits="userSpaceOnUse">
<stop stop-color="#1679C5"/>
<stop offset="1" stop-color="#0D5194"/>
</linearGradient>
<radialGradient id="paint27_radial_238_1071" cx="0" cy="0" r="1" gradientUnits="userSpaceOnUse" gradientTransform="translate(5.9862 22.6174) rotate(164.814) scale(3.02758 8.13924)">
<stop offset="0.706" stop-color="#0E5196" stop-opacity="0"/>
<stop offset="1" stop-color="#0E5196"/>
</radialGradient>
<linearGradient id="paint28_linear_238_1071" x1="2.4243" y1="21.6152" x2="7.42252" y2="32.4612" gradientUnits="userSpaceOnUse">
<stop offset="0.298" stop-color="#1679C5"/>
<stop offset="1" stop-color="#0D5194"/>
</linearGradient>
<radialGradient id="paint29_radial_238_1071" cx="0" cy="0" r="1" gradientUnits="userSpaceOnUse" gradientTransform="translate(3.3219 24.8704) rotate(165.175) scale(2.88645 7.5926)">
<stop offset="0.706" stop-color="#0E5196" stop-opacity="0"/>
<stop offset="1" stop-color="#0E5196"/>
</radialGradient>
</defs>
</svg>
